<svg width="64" height="71" viewBox="0 0 64 71" fill="none" xmlns="http://www.w3.org/2000/svg">
<path d="M29.4265 70.3403C30.0965 70.7693 30.8991 71 31.7223 71C32.5456 71 33.3482 70.7693 34.0181 70.3403C35.2215 69.577 63.5034 51.2624 63.3886 28.4002C63.3886 12.7411 49.1823 0 31.7223 0C14.2623 0 0.0560125 12.7411 0.0560125 28.3825C-0.0587779 51.2624 28.2232 69.577 29.4265 70.3403ZM31.7223 7.10006C44.8203 7.10006 55.4721 16.6532 55.4721 28.418C55.5552 44.173 38.1031 58.3199 31.7223 62.9598C25.3455 58.3163 7.88947 44.1659 7.97259 28.4002C7.97259 16.6532 18.6243 7.10006 31.7223 7.10006Z" fill="white"/>
</svg>
